<?xml version="1.0" standalone="no"?><!DOCTYPE svg PUBLIC "-//W3C//DTD SVG 1.1//EN" "http://www.w3.org/Graphics/SVG/1.1/DTD/svg11.dtd"><svg t="1707744366268" class="icon" viewBox="0 0 1262 1024" version="1.1" xmlns="http://www.w3.org/2000/svg" p-id="9315" xmlns:xlink="http://www.w3.org/1999/xlink" width="246.484375" height="200"><path d="M1256.238762 120.470588a19.021672 19.021672 0 0 0 0-27.739938L1153.204706 6.340557a18.229102 18.229102 0 0 0-26.947369 0l-43.591331 50.724458 129.981424 114.922601z m-639.603716 475.541796s-46.76161 142.662539-54.687306 185.4613a10.303406 10.303406 0 0 0 11.888545 11.888545c42.798762-15.851393 173.572755-79.256966 173.572755-79.256966l409.758514-482.674922-126.811145-110.959753z m0 0" fill="#0e932e" p-id="9316"></path><path d="M518.356409 865.486068a18.229102 18.229102 0 0 1-23.77709-19.814241c15.851393-79.256966 99.071207-339.219814 99.071207-339.219815l173.572756-208.44582-584.123839-193.386997h-23.77709v-15.851393a79.256966 79.256966 0 0 0-27.739938-54.687307 66.575851 66.575851 0 0 0-59.442725-15.851393 110.959752 110.959752 0 0 0-54.687306 26.947369 66.575851 66.575851 0 0 0-15.851393 59.442724 68.95356 68.95356 0 0 0 27.739938 55.479876 79.256966 79.256966 0 0 0 49.931888 15.851393h11.888545a23.77709 23.77709 0 0 0 3.962849 15.851394l190.216718 673.68421a100.656347 100.656347 0 0 0-54.687307 27.739938 64.990712 64.990712 0 0 0-15.851393 58.650155 110.167183 110.167183 0 0 0 26.947369 55.479876 79.256966 79.256966 0 0 0 51.517027 15.851393h7.925697a105.411765 105.411765 0 0 0 55.479876-27.739938 66.575851 66.575851 0 0 0 15.851393-59.442724 13.473684 13.473684 0 0 0 0-11.095975l634.055728-79.256966h3.962848v15.851393a105.411765 105.411765 0 0 0 27.739938 55.479876 79.256966 79.256966 0 0 0 51.517028 15.851393h7.925697a100.656347 100.656347 0 0 0 54.687306-27.739938 66.575851 66.575851 0 0 0 15.851393-59.442724 110.167183 110.167183 0 0 0-26.947368-55.479877 79.256966 79.256966 0 0 0-59.442724-15.851393 23.77709 23.77709 0 0 0-15.851394 0v-7.925696l-47.554179-267.888545-181.498452 217.164086s-237.770898 118.092879-311.479876 149.795666zM107.805325 116.50774c-7.925697 3.962848-15.851393 11.888545-23.77709 11.888545s-19.814241 0-23.777089-7.925697-11.095975-11.888545-15.058824-23.77709 0-19.814241 7.925697-23.777089A22.19195 22.19195 0 0 1 79.272817 61.027864a30.117647 30.117647 0 0 1 19.814242 7.925696 23.77709 23.77709 0 0 1 11.888545 23.77709 26.154799 26.154799 0 0 1 0 23.77709z m213.201238 852.012384a23.77709 23.77709 0 0 1-23.777089 11.888545c-7.925697 0-19.814241 0-23.77709-7.925697a23.77709 23.77709 0 0 1-11.888545-23.77709c0-7.925697 0-19.021672 7.925697-22.98452a23.77709 23.77709 0 0 1 23.777089-11.888545 30.117647 30.117647 0 0 1 19.814242 7.925697 23.77709 23.77709 0 0 1 11.888545 22.98452 79.256966 79.256966 0 0 1-7.925697 23.77709z m737.882353-141.869969a23.77709 23.77709 0 0 1 23.77709-11.888545h3.962848a30.117647 30.117647 0 0 1 19.814242 7.925697 23.77709 23.77709 0 0 1 11.888545 23.777089c0 7.925697 0 19.814241-7.925697 23.77709a23.77709 23.77709 0 0 1-23.77709 11.888545c-7.925697 0-19.814241 0-23.777089-7.925697a23.77709 23.77709 0 0 1-11.888545-23.777089 56.272446 56.272446 0 0 1 7.925696-23.77709z m0 0" fill="#0e932e" p-id="9317"></path></svg>